<svg height="32" viewBox="0 0 32 32" width="32" xmlns="http://www.w3.org/2000/svg"><g fill="none" fill-rule="evenodd"><rect fill="#fa5e92" height="32" rx="10" width="32"/><g transform="translate(7 7)"><path d="m0 0h18v18h-18z" fill="#ddd" opacity="0"/><g stroke="#fff" stroke-width="1.5"><path d="m4.57492448 3.86032838c-.24744562.82481872-1.00662523 1.38967162-1.86776126 1.38967162h-1.50716322c-.24852814 0-.45.20147186-.45.45v9.6c0 .2485281.20147186.45.45.45h15.6c.2485281 0 .45-.2014719.45-.45v-9.6c0-.24852814-.2014719-.45-.45-.45h-1.5071632c-.861136 0-1.6203157-.5648529-1.8677613-1.38967162l-.3868905-1.28963493c-.0571028-.19034278-.2322981-.32069345-.4310218-.32069345h-7.21432642c-.1987237 0-.37391899.13035067-.43102183.32069345z"/><circle cx="9" cy="9" r="2.55"/></g></g></g></svg>