<svg height="32" viewBox="0 0 32 32" width="32" xmlns="http://www.w3.org/2000/svg"><g fill="none" fill-rule="evenodd"><rect fill="#ffcf56" height="32" rx="10" width="32"/><g stroke="#fff" stroke-width="1.5" transform="translate(7 7)"><path d="m16.35 16.2v-3.4448222l.0753923-.1551912c.5401676-1.1119079.8246077-2.3349317.8246077-3.5999866 0-4.55634919-3.6936508-8.25-8.25-8.25-4.55634919 0-8.25 3.69365081-8.25 8.25 0 4.5563492 3.69365081 8.25 8.25 8.25 1.2650549 0 2.4880787-.2844401 3.5999866-.8246077l.1551912-.0753923h3.4448222c.0828427 0 .15-.0671573.15-.15z"/><rect height="1" rx=".5" width="3.9" x="6.75" y="7.95"/><rect height="1" rx=".5" width="5.1" x="6.75" y="10.95"/></g></g></svg>