<svg height="32" viewBox="0 0 32 32" width="32" xmlns="http://www.w3.org/2000/svg"><g fill="none" fill-rule="evenodd"><rect fill="#06b4fe" height="32" rx="10" width="32"/><g transform="translate(7 7)"><path d="m0 0h18v18h-18z" fill="#ddd" opacity="0"/><path d="m4.88606281 15.15h9.24900689l.182524-.020177c1.6614039-.1836589 2.9324063-1.5939288 2.9324063-3.279823 0-1.7831154-1.4167794-3.24245222-3.1939354-3.29833507l-.7950946-.02500183.0717213-.7922478c.0115129-.12717383.0173087-.25538949.0173087-.3844153 0-2.31959595-1.8804041-4.2-4.2-4.2-1.90193581 0-3.55230054 1.27545068-4.0497352 3.08190043l-.13438181.4880118-.50284831.05794447c-2.10603929.24268417-3.71303468 2.03362872-3.71303468 4.1721433 0 2.2721103 1.80723784 4.1306886 4.07231192 4.1981026z" stroke="#fff" stroke-width="1.5"/></g></g></svg>