<svg height="116" viewBox="0 0 128 116" width="128" xmlns="http://www.w3.org/2000/svg"><g fill="none"><path d="m97.266681.79930065c4.391199-.54863055 8.386102 2.61266698 8.92353 7.06645197l6.829471 56.59739438c.53713 4.4513243-2.588247 8.504718-6.978408 9.053219l-89.307955 11.1580176c-4.3911988.5486305-8.386102-2.612667-8.9235296-7.066452l-6.829471-56.5973944c-.5371304-4.4513243 2.5882466-8.504718 6.9784078-9.0532189zm-95.309014 28.31074895 1.2186936 10.0995923 105.2098924-13.1447846-1.218694-10.0995923z" fill="#7755fe"/><path d="m128 50.8572056c0-4.4872321-3.586503-8.1203635-8.010679-8.1203635h-89.978642c-4.4231306 0-8.010679 3.6356105-8.010679 8.1203635v57.0224314c0 4.487232 3.5865032 8.120363 8.010679 8.120363h89.978642c4.423131 0 8.010679-3.635611 8.010679-8.120363z" fill="#a38cfb"/><path d="m34 95.6491228c0-2.2478958 1.7801168-4.0701754 4.0002124-4.0701754h25.9995752c2.2092564 0 4.0002124 1.8066076 4.0002124 4.0701754 0 2.2478958-1.7801168 4.0701754-4.0002124 4.0701754h-25.9995752c-2.2092564 0-4.0002124-1.8066076-4.0002124-4.0701754zm40 0c0-2.2478958 1.7801168-4.0701754 4.0002124-4.0701754h25.9995756c2.209256 0 4.000212 1.8066076 4.000212 4.0701754 0 2.2478958-1.780117 4.0701754-4.000212 4.0701754h-25.9995756c-2.2092564 0-4.0002124-1.8066076-4.0002124-4.0701754zm-40-28.4950919c0-2.245762 1.7748666-4.0663116 3.99923-4.0663116h12.00154c2.2087138 0 3.99923 1.8045253 3.99923 4.0663116v8.1480785c0 2.2457621-1.7748666 4.0663117-3.99923 4.0663117h-12.00154c-2.2087138 0-3.99923-1.8045254-3.99923-4.0663117z" fill="#7755fe"/></g></svg>