<svg height="29" viewBox="0 0 93 29" width="93" xmlns="http://www.w3.org/2000/svg" xmlns:xlink="http://www.w3.org/1999/xlink"><defs><path id="a" d="m1.49146999 21.5060056 7.17273244-14.24730048c.47937646-.9521923 1.63989227-1.33548527 2.59208457-.8561088.6513306.32790917 1.0622743.99488064 1.0622743 1.72409668v7.2257921c0 .4975538.4033471.9009009.9009009.9009009h3.8846523c1.0946184 0 1.981982.8873636 1.981982 1.981982 0 .3261731-.0804989.6473049-.2343563.9349102l-7.445374 13.9176219c-.5085754.950679-1.69153481 1.3090747-2.64221377.8004993-.63493563-.3396653-1.03133291-1.0012761-1.03133291-1.7213565v-6.8869095c0-.4975538-.40334707-.9009009-.9009009-.9009009h-3.57015624c-1.09461842 0-1.98198198-.8873636-1.98198198-1.981982 0-.309536.07249942-.6147694.21168959-.8912449z"/><mask id="b" fill="#fff"><use fill="#fff" fill-rule="evenodd" xlink:href="#a"/></mask></defs><g fill="none" fill-rule="evenodd" transform="translate(-1 -6)"><use fill="#fff" xlink:href="#a"/><ellipse cx="2.427746" cy="12.189616" fill="#f5f5f5" fill-rule="nonzero" mask="url(#b)" rx="17.983301" ry="18.058691"/><g fill="#fff"><ellipse cx=".359666" cy="7.404063" fill-rule="nonzero" mask="url(#b)" rx="13.217726" ry="13.273138"/><path d="m29.5187361 20.0254305c-.2951447-.2269459-.6205182-.3964561-.985129-.5226932-.4339512-.1502444-.7007154-.1986985-1.5665365-.3171558-1.2485186-.1708161-1.7041077-.42097-1.7041077-1.2930782 0-.8623821.7773945-1.4467057 1.7529829-1.4467057.8835819 0 1.7369503.3112028 2.0376601.9162753.0487694.0732402.0487694.0732402.0953837.1423413.2498467.3670545.4059481.4862216.6986631.4862216.0686819 0 .841716-.5648517.8609004-.7943976 0-.5333385-.3016355-1.0046568-.8211005-1.4143946-.2855669-.2252462-.4367492-.3103517-.8485399-.5160195-.6220085-.3106605-1.3028668-.4740967-1.9794021-.4740967-1.9306773 0-3.431219 1.2590618-3.431219 3.0790176 0 1.8203053 1.4394985 2.7912908 3.3917451 3.0150852 1.2965776.1349109 2.0320627.5520553 2.030128 1.4328892-.0298402.2384575-.0837885.4329031-.2300608.6575815-.2836329.4356683-.7901021.6928068-1.5543723.6925374-1.0034061-.0466184-1.6008097-.3606938-2.1487302-1.1222638-.0923223-.1229603-1.4887098.2649549-1.4887098.5026424 0 .1225014.0048061.1681091.0267817.2145613.49065 1.2706497 2.0088799 2.0376415 3.6658256 2.0376415 1.3344904 0 2.2416049-.4750795 2.8060737-1.287856.3890598-.5602057.5815805-1.2580289.5815805-1.7258868 0-.8036788-.4558584-1.6707173-1.1898173-2.2622467zm8.5388864 5.341264c2.8897388 0 5.2173726-2.325061 5.2173726-5.2113296 0-2.8721866-2.3352979-5.2113295-5.2173726-5.2113295-2.8679564 0-5.2173725 2.3468193-5.2173725 5.2113295v9.7694701c0 .2541404 1.6564537.2541404 1.6564537 0v-5.9222459l.4014048.3054942c.8949501.6811131 2.0017035 1.0586112 3.159514 1.0586112zm0-8.7685889c1.960491 0 3.5609189 1.6059255 3.5609189 3.5572593 0 1.9658291-1.5931912 3.5572594-3.5609189 3.5572594-1.9640919 0-3.5609188-1.5878117-3.5609188-3.5355011v-.0217583c0-1.965829 1.5931912-3.5572593 3.5609188-3.5572593zm12.4357478-1.7411034c-2.8897388 0-5.2173725 2.3250611-5.2173725 5.2113296 0 2.8721867 2.3352978 5.2113296 5.2173725 5.2113296.0264744.0000052.0264744.0000052.0531387.0000206 1.303006.0007523 2.0621504-.1607708 3.1648839-.8950986.0780587-.0508516.0355822-.458924-.1712667-.8967623-.1962182-.415336-.4363754-.6431232-.4716059-.6201752-.8985574.5796769-1.6787072.7579453-2.57515.7579453-1.5353379 0-2.8696204-.9729497-3.372596-2.4084344l-.116563-.332669h7.8674135c.4692977 0 .8391181-.3642809.8391181-.816156 0-3.1005156-2.3749557-5.2113296-5.2173726-5.2113296zm0 1.6540702c1.5644242 0 2.943015.8829043 3.397877 2.3974353l.0966798.3219098h-6.9856951l.118982-.3339134c.5050411-1.4173567 1.8417944-2.3854317 3.3721563-2.3854317zm12.4793125-1.6540702c-2.8756408 0-5.2173725 2.3327173-5.2173725 5.2113296v4.3734153c0 .2758987 1.6564537.2758987 1.6564537 0v-4.3734153c0-1.9658291 1.5931912-3.5572594 3.5609188-3.5572594 1.9677277 0 3.5609189 1.5914303 3.5609189 3.5572594v4.3734153c0 .2758987 1.6564537.2758987 1.6564537 0v-4.3734153c0-2.8786123-2.3417318-5.2113296-5.2173726-5.2113296zm12.4793126-.0435166c-2.8897389 0-5.2173726 2.3250611-5.2173726 5.2113296 0 2.8721867 2.3352979 5.2113296 5.2173726 5.2113296 2.8679564 0 5.2173725-2.3468193 5.2173725-5.2113296v-9.76947c0-.2541404-1.6564537-.2541404-1.6564537 0v5.9222458l-.4014048-.3054941c-.8949501-.6811132-2.0017035-1.0586113-3.159514-1.0586113zm0 8.768589c-1.9604911 0-3.5609189-1.6059256-3.5609189-3.5572594 0-1.965829 1.5931912-3.5572593 3.5609189-3.5572593 1.9640918 0 3.5609188 1.5878117 3.5609188 3.535501v.0217583c0 1.9658291-1.5931912 3.5572594-3.5609188 3.5572594zm12.4139654 1.6975868c2.8820747 0 5.2173725-2.3391429 5.2173725-5.2113296 0-2.8862685-2.3276337-5.2113296-5.2173725-5.2113296-2.8756408 0-5.2173726 2.3327173-5.2173726 5.2113296 0 2.8645103 2.3494161 5.2113296 5.2173726 5.2113296zm0-8.768589c1.9677276 0 3.5609188 1.5914303 3.5609188 3.5572594 0 1.9513338-1.6004278 3.5572594-3.5609188 3.5572594s-3.5609189-1.6059256-3.5609189-3.5572594c0-1.9658291 1.5931912-3.5572594 3.5609189-3.5572594z" stroke="#282a2c" stroke-width=".5"/></g></g></svg>